<svg width="85" height="85" fill="none" xmlns="http://www.w3.org/2000/svg"><path fill-rule="evenodd" clip-rule="evenodd" d="M50.106 10C27.866 10 10 27.665 10 49.255a5 5 0 01-10 0C0 21.963 22.524 0 50.106 0c1.91 0 3.798.105 5.656.31a5 5 0 01-1.099 9.94 41.451 41.451 0 00-4.557-.25z" fill="#FF9739"/><path d="M84.15 50.958C84.15 69.758 68.907 85 50.105 85c-18.8 0-34.042-15.241-34.042-34.042 0-18.802 15.241-34.043 34.042-34.043 18.802 0 34.043 15.241 34.043 34.043z" fill="#FF9739"/><path d="M33.917 43.12c2.197-2.197 4.843-3.296 7.936-3.296s5.728 1.099 7.904 3.296c2.197 2.176 3.296 4.81 3.296 7.904 0 3.094-1.088 5.739-3.264 7.936-2.176 2.176-4.822 3.264-7.936 3.264-3.115 0-5.76-1.088-7.936-3.264-2.176-2.197-3.264-4.842-3.264-7.936 0-3.093 1.088-5.728 3.264-7.904zm12.768 2.848c-1.302-1.322-2.912-1.984-4.832-1.984s-3.53.662-4.832 1.984c-1.28 1.323-1.92 3.008-1.92 5.056 0 2.07.64 3.755 1.92 5.056 1.301 1.302 2.912 1.952 4.832 1.952 1.941 0 3.552-.65 4.832-1.952 1.301-1.301 1.952-2.986 1.952-5.056 0-2.048-.65-3.733-1.952-5.056zM65.866 62H61.45V47.856l-2.304 2.752-2.848-2.176 6.944-8.352h2.624V62z" fill="#FCFCFC"/></svg>