<svg width="76" height="90" fill="none" xmlns="http://www.w3.org/2000/svg"><path fill-rule="evenodd" clip-rule="evenodd" d="M45.77 10C25.923 10 10 25.76 10 45c0 19.24 15.924 35 35.77 35a5 5 0 110 10C20.581 90 0 69.942 0 45S20.582 0 45.77 0c1.744 0 3.467.096 5.164.284a5 5 0 11-1.099 9.94A37.004 37.004 0 0045.77 10z" fill="#FF9739"/><path d="M75.77 45c0 16.994-13.776 30.77-30.77 30.77-16.993 0-30.769-13.776-30.769-30.77 0-16.993 13.776-30.769 30.77-30.769 16.993 0 30.768 13.776 30.768 30.77z" fill="#FF9739"/><path d="M25.747 37.505c2.198-2.197 4.843-3.296 7.936-3.296 3.094 0 5.728 1.099 7.904 3.296 2.198 2.176 3.296 4.81 3.296 7.904 0 3.093-1.088 5.739-3.264 7.936-2.176 2.176-4.82 3.264-7.936 3.264-3.114 0-5.76-1.088-7.936-3.264-2.176-2.197-3.264-4.843-3.264-7.936s1.088-5.728 3.264-7.904zm12.768 2.848c-1.3-1.323-2.912-1.984-4.832-1.984s-3.53.661-4.832 1.984c-1.28 1.323-1.92 3.008-1.92 5.056 0 2.07.64 3.755 1.92 5.056 1.302 1.301 2.912 1.952 4.832 1.952 1.942 0 3.552-.65 4.832-1.952 1.302-1.301 1.952-2.987 1.952-5.056 0-2.048-.65-3.733-1.952-5.056zm26.893 16.032h-16.96v-2.656l9.216-7.712c1.024-.832 1.782-1.568 2.272-2.208.512-.64.768-1.344.768-2.112 0-1.024-.352-1.824-1.056-2.4-.682-.597-1.557-.907-2.624-.928h-.192c-1.514 0-3.21.821-5.088 2.464l-2.88-2.624c2.646-2.667 5.42-4 8.32-4h.256c2.411.021 4.278.683 5.6 1.984 1.323 1.28 1.984 2.816 1.984 4.608 0 1.536-.48 2.976-1.44 4.32-.96 1.323-2.464 2.784-4.512 4.384l-3.136 2.72h9.472v4.16z" fill="#FCFCFC"/></svg>