<svg width="43" height="43" fill="none" xmlns="http://www.w3.org/2000/svg"><path fill-rule="evenodd" clip-rule="evenodd" d="M25.553 5.5C14.433 5.5 5.5 14.332 5.5 25.128a2.5 2.5 0 01-5 0C.5 11.482 11.762.5 25.553.5c.955 0 1.899.053 2.828.155a2.5 2.5 0 11-.55 4.97 20.73 20.73 0 00-2.278-.125z" fill="#FF9739"/><path d="M42.574 25.979c0 9.4-7.62 17.021-17.021 17.021-9.4 0-17.021-7.62-17.021-17.021 0-9.4 7.62-17.021 17.021-17.021 9.4 0 17.021 7.62 17.021 17.02z" fill="#FF9739"/><path d="M13.688 21.2c1.374-1.373 3.027-2.06 4.96-2.06 1.934 0 3.58.687 4.94 2.06 1.374 1.36 2.06 3.007 2.06 4.94 0 1.933-.68 3.587-2.04 4.96-1.36 1.36-3.013 2.04-4.96 2.04-1.946 0-3.6-.68-4.96-2.04-1.36-1.373-2.04-3.027-2.04-4.96 0-1.933.68-3.58 2.04-4.94zm7.98 1.78c-.813-.826-1.82-1.24-3.02-1.24s-2.206.414-3.02 1.24c-.8.827-1.2 1.88-1.2 3.16 0 1.293.4 2.347 1.2 3.16.814.813 1.82 1.22 3.02 1.22 1.214 0 2.22-.407 3.02-1.22.814-.813 1.22-1.867 1.22-3.16 0-1.28-.406-2.333-1.22-3.16zM38.477 33h-10.6v-1.66l5.76-4.82c.64-.52 1.113-.98 1.42-1.38.32-.4.48-.84.48-1.32 0-.64-.22-1.14-.66-1.5-.427-.373-.974-.567-1.64-.58h-.12c-.947 0-2.007.514-3.18 1.54l-1.8-1.64c1.653-1.666 3.386-2.5 5.2-2.5h.16c1.506.014 2.673.427 3.5 1.24.826.8 1.24 1.76 1.24 2.88 0 .96-.3 1.86-.9 2.7-.6.827-1.54 1.74-2.82 2.74l-1.96 1.7h5.92V33z" fill="#FCFCFC"/></svg>