<svg width="83" height="90" fill="none" xmlns="http://www.w3.org/2000/svg"><path fill-rule="evenodd" clip-rule="evenodd" d="M45.77 10C25.923 10 10 25.76 10 45c0 19.24 15.924 35 35.77 35 11.17 0 21.12-5.003 27.676-12.827a5 5 0 017.665 6.423C72.71 83.62 59.985 90 45.769 90 20.582 90 0 69.942 0 45S20.582 0 45.77 0c1.744 0 3.467.096 5.164.284a5 5 0 11-1.099 9.94A37.004 37.004 0 0045.77 10z" fill="#FF9739"/><path d="M75.77 45c0 16.994-13.776 30.77-30.77 30.77-16.993 0-30.769-13.776-30.769-30.77 0-16.993 13.776-30.769 30.77-30.769 16.993 0 30.768 13.776 30.768 30.77z" fill="#FF9739"/><path d="M25.482 38.505c2.197-2.197 4.842-3.296 7.936-3.296 3.093 0 5.728 1.099 7.904 3.296 2.197 2.176 3.296 4.81 3.296 7.904 0 3.093-1.088 5.739-3.264 7.936-2.176 2.176-4.822 3.264-7.936 3.264-3.115 0-5.76-1.088-7.936-3.264-2.176-2.197-3.264-4.843-3.264-7.936s1.088-5.728 3.264-7.904zm12.768 2.848c-1.302-1.323-2.912-1.984-4.832-1.984s-3.53.661-4.832 1.984c-1.28 1.323-1.92 3.008-1.92 5.056 0 2.07.64 3.755 1.92 5.056 1.301 1.301 2.912 1.952 4.832 1.952 1.941 0 3.552-.65 4.832-1.952 1.301-1.301 1.952-2.987 1.952-5.056 0-2.048-.65-3.733-1.952-5.056zm26.413-3.296l-6.304 6.08a12.487 12.487 0 011.504-.032c1.834.256 3.253.97 4.256 2.144 1.002 1.152 1.504 2.55 1.504 4.192 0 2.048-.694 3.755-2.08 5.12-1.366 1.344-3.403 2.027-6.112 2.048h-.224c-3.542-.021-6.55-1.387-9.024-4.096l2.88-2.656c2.005 1.728 4.032 2.592 6.08 2.592h.224c1.194-.021 2.176-.373 2.944-1.056.768-.704 1.152-1.568 1.152-2.592 0-2.261-1.43-3.392-4.288-3.392-.81 0-1.867.277-3.168.832l-2.08-1.568 6.304-6.08h-8.032v-4.128h14.464v2.592z" fill="#FCFCFC"/></svg>