<svg width="43" height="43" fill="none" xmlns="http://www.w3.org/2000/svg"><path fill-rule="evenodd" clip-rule="evenodd" d="M25.553 5.5C14.433 5.5 5.5 14.332 5.5 25.128a2.5 2.5 0 01-5 0C.5 11.482 11.762.5 25.553.5c.955 0 1.899.053 2.828.155a2.5 2.5 0 11-.55 4.97 20.73 20.73 0 00-2.278-.125z" fill="#FF9739"/><path d="M42.574 25.979c0 9.4-7.62 17.021-17.021 17.021-9.4 0-17.021-7.62-17.021-17.021 0-9.4 7.62-17.021 17.021-17.021 9.4 0 17.021 7.62 17.021 17.02z" fill="#FF9739"/><path d="M13.522 21.2c1.374-1.373 3.027-2.06 4.96-2.06 1.934 0 3.58.687 4.94 2.06 1.374 1.36 2.06 3.007 2.06 4.94 0 1.933-.68 3.587-2.04 4.96-1.36 1.36-3.013 2.04-4.96 2.04-1.946 0-3.6-.68-4.96-2.04-1.36-1.373-2.04-3.027-2.04-4.96 0-1.933.68-3.58 2.04-4.94zm7.98 1.78c-.813-.826-1.82-1.24-3.02-1.24s-2.206.414-3.02 1.24c-.8.827-1.2 1.88-1.2 3.16 0 1.293.4 2.347 1.2 3.16.814.813 1.82 1.22 3.02 1.22 1.214 0 2.22-.407 3.02-1.22.814-.813 1.22-1.867 1.22-3.16 0-1.28-.406-2.333-1.22-3.16zm16.508-2.06l-3.94 3.8c.374-.026.687-.033.94-.02 1.147.16 2.034.607 2.66 1.34.627.72.94 1.594.94 2.62 0 1.28-.433 2.347-1.3 3.2-.853.84-2.126 1.267-3.82 1.28h-.14c-2.213-.013-4.093-.867-5.64-2.56l1.8-1.66c1.254 1.08 2.52 1.62 3.8 1.62h.14c.747-.013 1.36-.233 1.84-.66.48-.44.72-.98.72-1.62 0-1.413-.893-2.12-2.68-2.12-.506 0-1.166.174-1.98.52l-1.3-.98 3.94-3.8h-5.02V19.3h9.04v1.62z" fill="#FCFCFC"/></svg>