<svg width="15" height="13" fill="none" xmlns="http://www.w3.org/2000/svg"><g clip-path="url(#clip0_258_547)" fill="#393939"><path d="M3.199 10.663a1.53 1.53 0 00-.438-.309 1.637 1.637 0 00-.63-.157h-.096a1.633 1.633 0 00-.862.232c-.248.15-.445.36-.567.608a1.437 1.437 0 00-.097.272c-.047.19-.047.386 0 .576.023.093.056.184.097.273.124.245.32.454.567.603.254.156.555.237.861.234a1.742 1.742 0 00.67-.133l.045-.023a.489.489 0 01.074-.032l.067-.024.035.048c.032.05.077.091.132.12a.388.388 0 00.181.043.388.388 0 00.256-.096.309.309 0 00.086-.102c.02-.04.03-.083.031-.126v-1.074a1.243 1.243 0 00-.112-.505 1.476 1.476 0 00-.3-.428zm-.4 1.229a.772.772 0 01-.444.395.925.925 0 01-.324.056.821.821 0 01-.309-.06.928.928 0 01-.262-.159.791.791 0 01-.185-.236.63.63 0 01-.004-.579.784.784 0 01.181-.24.86.86 0 01.897-.163c.1.04.19.095.267.163.076.07.138.15.181.24a.672.672 0 01.001.585v-.002zm2.969-1.688a1.861 1.861 0 00-.594.119 1.625 1.625 0 00-.49.288 1.4 1.4 0 00-.328.428 1.134 1.134 0 00-.124.522v1.117a.286.286 0 00.024.128.34.34 0 00.193.174.366.366 0 00.133.02.39.39 0 00.264-.083.3.3 0 00.08-.096.273.273 0 00.032-.117v-1.102a.668.668 0 01.062-.298.763.763 0 01.441-.397.887.887 0 01.314-.055.408.408 0 00.263-.098.3.3 0 00.078-.102.274.274 0 00.026-.121.347.347 0 00-.117-.233.35.35 0 00-.118-.071.378.378 0 00-.139-.023zm3.671 2.048a.284.284 0 00-.083-.096.392.392 0 00-.26-.088h-.007a.41.41 0 00-.263.088.697.697 0 01-.244.137 1.031 1.031 0 01-.329.045.904.904 0 01-.332-.062.813.813 0 01-.266-.168.745.745 0 01-.157-.243.676.676 0 01-.046-.29v-.721h.821c.047 0 .094-.01.136-.028a.338.338 0 00.113-.075.325.325 0 00.081-.104.299.299 0 00-.07-.357.355.355 0 00-.26-.088h-.821v-.628a.252.252 0 00-.026-.122.278.278 0 00-.081-.098.455.455 0 00-.282-.088.44.44 0 00-.278.088.278.278 0 00-.082.098.252.252 0 00-.025.122v1.995c-.004.202.04.402.13.587.082.17.202.323.352.45.151.126.328.225.52.29.202.068.417.102.633.101a1.6 1.6 0 001.076-.404.246.246 0 00.068-.1.311.311 0 00.02-.123.29.29 0 00-.038-.118zm5.016.188l-.934-.843.933-.844a.294.294 0 00.097-.23.28.28 0 00-.023-.122.303.303 0 00-.074-.104.383.383 0 00-.255-.1h-.003a.356.356 0 00-.13.025.33.33 0 00-.107.07l-.954.844-.933-.837a.448.448 0 00-.255-.1.349.349 0 00-.14.023.32.32 0 00-.114.075.378.378 0 00-.109.231c-.003.04.004.08.021.116a.25.25 0 00.076.095l.954.857-.954.856a.292.292 0 00-.076.105.315.315 0 00.088.348.32.32 0 00.118.07.345.345 0 00.14.018.448.448 0 00.258-.088l.93-.84.932.824a.377.377 0 00.12.08.385.385 0 00.146.027.373.373 0 00.252-.088.302.302 0 00.082-.107.279.279 0 00.024-.129.298.298 0 00-.03-.126.325.325 0 00-.08-.105zm-3.786-2.15a.4.4 0 00-.076-.046.344.344 0 00-.175-.045.344.344 0 00-.176.045.4.4 0 00-.076.046.281.281 0 00-.08.095.253.253 0 00-.03.117v2.187c0 .043.01.086.03.125a.369.369 0 00.327.18h.013a.369.369 0 00.24-.08.297.297 0 00.087-.1.271.271 0 00.03-.125v-2.187a.254.254 0 00-.03-.118.28.28 0 00-.084-.094zm.019-.92a.326.326 0 00-.11-.072.352.352 0 00-.134-.024.384.384 0 00-.255.087.303.303 0 00-.082.099.278.278 0 00-.03.12.291.291 0 00.019.132.315.315 0 00.077.114.42.42 0 00.401.069.324.324 0 00.11-.072.308.308 0 00.104-.228.308.308 0 00-.104-.228l.004.003z"/></g><g clip-path="url(#clip1_258_547)" fill="#393939"><path d="M7.516 3.494c-1.056 0-2.016.86-2.016 1.92.001.39.13.77.37 1.086.513-.289 1.07-.493 1.65-.493.581 0 1.136.204 1.65.493.24-.317.37-.696.37-1.086-.003-1.06-.964-1.92-2.024-1.92z"/><path d="M7.515 0C4.922 0 2.819 5.21 2.819 7.643c0 1.888 1.267-.14 3.046-1.143a1.791 1.791 0 01-.37-1.135 1.8 1.8 0 01.432-1.116 1.52 1.52 0 00-.13.614c0 .433.181.847.504 1.153.322.305.758.477 1.214.477.455 0 .892-.172 1.214-.477a1.59 1.59 0 00.503-1.153c0-.21-.044-.42-.13-.614a1.8 1.8 0 01.432 1.116c.012.406-.118.805-.37 1.135 1.78 1.003 3.046 3.03 3.046 1.143C12.21 5.212 10.108 0 7.515 0z"/></g><defs><clipPath id="clip0_258_547"><path fill="#fff" transform="translate(.475 9.259)" d="M0 0h14.086v3.741H0z"/></clipPath><clipPath id="clip1_258_547"><path fill="#fff" transform="translate(2.822)" d="M0 0h9.391v8.418H0z"/></clipPath></defs></svg>