<svg width="17" height="17" fill="none" xmlns="http://www.w3.org/2000/svg"><path d="M13.945 2.55A7.765 7.765 0 008.402.22C4.067.22.555 3.77.555 8.153a8.11 8.11 0 001.043 3.939L.5 16.197l4.17-1.11a7.933 7.933 0 003.732.943c4.336 0 7.848-3.55 7.848-7.933-.055-2.052-.823-4.049-2.305-5.547zm-1.756 8.432c-.165.444-.933.888-1.317.943-.33.056-.768.056-1.207-.055-.275-.111-.659-.222-1.098-.444-1.976-.832-3.238-2.83-3.347-2.996-.11-.11-.824-1.054-.824-2.052 0-.999.494-1.442.659-1.664.165-.222.384-.222.549-.222h.384c.11 0 .274-.056.439.333.164.388.549 1.386.603 1.442a.357.357 0 010 .333 1.17 1.17 0 01-.219.333c-.11.11-.22.277-.274.332-.11.111-.22.222-.11.389.11.222.494.832 1.097 1.387.769.665 1.372.887 1.592.998.22.111.33.056.439-.055.11-.111.494-.555.604-.777.11-.222.274-.166.439-.111.164.055 1.152.555 1.317.666.22.11.329.166.384.222.055.166.055.554-.11.998z" fill="#fff"/></svg>