<svg width="16" height="22" fill="none" xmlns="http://www.w3.org/2000/svg"><path d="M13.6 9.267l.8-3.2c.133-.4.667-2.267-.4-3.867C13.2 1 11.6.333 9.333.333H6.667C4.4.333 2.8 1 2 2.2c-1.067 1.6-.533 3.333-.4 3.867l.8 3.2C.933 10.733 0 12.733 0 15c0 2.8 1.467 5.2 3.6 6.667h8.8C14.533 20.2 16 17.8 16 15c0-2.267-.933-4.267-2.4-5.733zm-8.8-1.6L4.133 5.4v-.133s-.266-.934.134-1.467c.266-.533 1.066-.8 2.4-.8h2.666c1.2 0 2.134.267 2.534.667.4.533.133 1.466.133 1.466l-.667 2.534C10.267 7.267 9.2 7 8 7c-1.2 0-2.267.267-3.2.667z" fill="#393939"/></svg>