<svg width="26" height="26" fill="none" xmlns="http://www.w3.org/2000/svg"><path d="M25.718 13C25.718 5.943 20.006.222 12.96.222 5.914.222.203 5.942.203 13c0 7.057 5.711 12.778 12.757 12.778 7.046 0 12.758-5.72 12.758-12.778zM7.22 8.84c.443-.488 1.168-.951 2.233-.951 1.47 0 2.416 1.012 2.75 2.122.322 1.083.127 2.422-.792 3.346-.318.306-.656.592-1.011.856l-.051.04a10.16 10.16 0 00-.957.804c-.326.327-.592.684-.747 1.138h2.722a.956.956 0 01.957.958.959.959 0 01-.957.958H7.538a.956.956 0 01-.957-.958c0-1.593.669-2.662 1.46-3.451.378-.379.788-.697 1.135-.966l.004-.003c.365-.282.648-.502.874-.728.347-.35.468-.927.314-1.444-.147-.487-.472-.755-.916-.755-.45 0-.683.175-.817.323a1.078 1.078 0 00-.188.293v.003a.958.958 0 11-1.822-.59l.045-.123c.13-.32.316-.615.548-.872h.001zm7.336-.951a.956.956 0 01.957.958v3.514h1.914V8.847a.96.96 0 01.956-.958.956.956 0 01.957.958v8.268a.96.96 0 01-.957.958.956.956 0 01-.956-.959v-2.836h-2.87a.956.956 0 01-.958-.959V8.848a.96.96 0 01.957-.958z" fill="#21D5D5"/></svg>