<svg width="26" height="26" fill="none" xmlns="http://www.w3.org/2000/svg"><path d="M9.272 2.095A5.164 5.164 0 007.622.693 4.873 4.873 0 003.48.47a5.086 5.086 0 00-1.778 1.216A5.411 5.411 0 00.547 3.557 5.633 5.633 0 00.76 7.92c.323.67.777 1.262 1.331 1.737a12.66 12.66 0 00-.607 3.893c0 2.976 1.02 5.702 2.716 7.809l-2.435 2.564a.997.997 0 00-.222.327 1.053 1.053 0 00.198 1.122c.09.096.199.172.318.222a.916.916 0 001.058-.247l2.435-2.564c2.072 1.85 4.7 2.864 7.417 2.86 2.827 0 5.416-1.075 7.417-2.86l2.435 2.564a.96.96 0 00.31.233.917.917 0 001.067-.208 1.055 1.055 0 00.197-1.123 1.008 1.008 0 00-.222-.326l-2.434-2.564c1.757-2.181 2.72-4.95 2.715-7.81a12.66 12.66 0 00-.607-3.892 5.332 5.332 0 001.331-1.737 5.632 5.632 0 00.213-4.362 5.41 5.41 0 00-1.155-1.872A5.086 5.086 0 0022.458.47a4.873 4.873 0 00-4.142.224c-.637.34-1.2.818-1.65 1.402a10.95 10.95 0 00-3.697-.64 10.949 10.949 0 00-3.697.64zm-3.96.032a3.087 3.087 0 012.103.833A11.862 11.862 0 002.913 7.7a3.44 3.44 0 01-.757-1.721 3.52 3.52 0 01.25-1.88 3.316 3.316 0 011.178-1.436 3.075 3.075 0 011.728-.536zm13.21.833a3.095 3.095 0 012.209-.832c.81.028 1.579.38 2.151.982.573.604.907 1.414.933 2.266a3.468 3.468 0 01-.79 2.325 11.862 11.862 0 00-4.502-4.74zm-6.51 3.87c.254 0 .497.106.677.295.18.19.28.446.28.713v5.71h3.51c.253 0 .497.107.676.296.18.189.28.445.28.712 0 .268-.1.524-.28.713a.933.933 0 01-.677.295h-4.466a.933.933 0 01-.677-.295 1.035 1.035 0 01-.28-.713V7.838c0-.267.1-.524.28-.713a.933.933 0 01.677-.295z" fill="#FEBB12"/></svg>