<svg width="25" height="26" fill="none" xmlns="http://www.w3.org/2000/svg"><path d="M12.47 7.683c-1.184 0-2.24.545-2.939 1.397a3.871 3.871 0 00-.613 3.834 3.84 3.84 0 001.183 1.62c.53.425 1.164.7 1.834.795a7.662 7.662 0 014.345-3.756v-.048a3.84 3.84 0 00-.872-2.445 3.792 3.792 0 00-2.938-1.397zm12.022 6.178a7.604 7.604 0 00-3.085-2.188 7.546 7.546 0 00-3.748-.425 5.243 5.243 0 00-.592-2.168h5.794c.551 0 1.08.221 1.47.614.39.393.608.926.608 1.482v.698c0 .67-.152 1.347-.447 1.987zM11.37 16.764a7.745 7.745 0 00-.287 2.095 7.686 7.686 0 003.04 6.14 9.16 9.16 0 01-1.654.147c-4.35 0-6.928-2.835-6.928-5.588v-.699a2.105 2.105 0 01.607-1.483 2.073 2.073 0 011.471-.612h3.751zm-6.778.396C1.67 16.363 0 14.091 0 11.874v-.698c0-.556.219-1.089.609-1.482a2.07 2.07 0 011.47-.614h5.795a5.25 5.25 0 00-.6 2.445c0 .721.146 1.435.432 2.096a5.225 5.225 0 001.23 1.746H7.62c-.617 0-1.223.166-1.755.481a3.478 3.478 0 00-1.272 1.312zM6.928 0c1.01 0 1.98.405 2.694 1.125a3.858 3.858 0 011.116 2.717 3.858 3.858 0 01-1.116 2.716 3.794 3.794 0 01-2.694 1.125c-1.01 0-1.98-.404-2.695-1.125a3.858 3.858 0 01-1.116-2.716 3.86 3.86 0 011.116-2.717A3.794 3.794 0 016.928 0zm11.084 0c1.01 0 1.98.405 2.694 1.125a3.858 3.858 0 011.116 2.717 3.858 3.858 0 01-1.116 2.716 3.794 3.794 0 01-2.694 1.125c-1.01 0-1.98-.404-2.694-1.125a3.858 3.858 0 01-1.116-2.716c0-1.02.401-1.996 1.116-2.717A3.795 3.795 0 0118.012 0zm.693 25.146a6.21 6.21 0 004.408-1.842 6.313 6.313 0 001.826-4.445 6.313 6.313 0 00-1.826-4.445 6.21 6.21 0 00-4.408-1.841c-1.654 0-3.24.662-4.41 1.841a6.313 6.313 0 00-1.825 4.445c0 1.667.657 3.266 1.826 4.445a6.209 6.209 0 004.409 1.842zm0-9.78a.69.69 0 01.49.205.7.7 0 01.202.494v2.096h2.079a.69.69 0 01.49.204.702.702 0 010 .988.69.69 0 01-.49.205h-2.079v2.095a.702.702 0 01-.202.494.69.69 0 01-1.183-.494v-2.095h-2.079a.69.69 0 01-.49-.205.701.701 0 01.49-1.192h2.079v-2.096c0-.185.073-.363.203-.494a.69.69 0 01.49-.204z" fill="#3DAFFF"/></svg>