<svg width="26" height="22" fill="none" xmlns="http://www.w3.org/2000/svg"><path d="M12.928.61C5.891.61.187 6.655.187 14.11c0 2.474.63 4.792 1.728 6.786.248.45.721.712 1.214.712h19.599c.493 0 .966-.261 1.214-.712a14.044 14.044 0 001.728-6.787C25.67 6.654 19.965.611 12.928.611zm0 3c.651 0 1.176.475 1.342 1.109-.05.106-.117.198-.153.313l-.408 1.296c-.227.164-.485.282-.78.282-.782 0-1.416-.671-1.416-1.5 0-.828.634-1.5 1.415-1.5zm-8.494 13.5c-.782 0-1.416-.672-1.416-1.5s.634-1.5 1.416-1.5c.782 0 1.416.672 1.416 1.5s-.634 1.5-1.416 1.5zm2.124-7.5c-.782 0-1.416-.67-1.416-1.499 0-.828.634-1.5 1.416-1.5.781 0 1.415.672 1.415 1.5s-.634 1.5-1.415 1.5zm10.917-3.393l-2.713 8.624c.605.55.998 1.357.998 2.269 0 .55-.15 1.057-.393 1.5H10.49a3.101 3.101 0 01-.393-1.5c0-1.59 1.172-2.88 2.65-2.98l2.714-8.625c.184-.589.784-.912 1.343-.711.556.196.856.834.671 1.423zm.649 2.68l.686-2.18c.154-.061.316-.105.49-.105.78 0 1.415.671 1.415 1.5 0 .828-.634 1.5-1.416 1.5-.503-.001-.924-.295-1.175-.714zm3.299 8.213c-.782 0-1.416-.672-1.416-1.5s.634-1.5 1.416-1.5c.782 0 1.415.672 1.415 1.5s-.634 1.5-1.415 1.5z" fill="#6167E9"/></svg>