<svg width="27" height="24" fill="none" xmlns="http://www.w3.org/2000/svg"><path fill-rule="evenodd" clip-rule="evenodd" d="M13.36 16.765v-3.47c0-1.125.916-2.04 2.045-2.04h7.507V9.091c0-1.025-.646-1.882-1.53-2.161v.001l-2.638-.02-.032-.088H6.867l-.226.072-4.178-.003-.008-.031C1.44 7.042.621 7.908.621 9.022v11.955c0 1.251 1.035 2.338 2.223 2.338h17.923c1.188 0 2.146-1.016 2.146-2.267v-2.184h-7.507c-1.128 0-2.045-.973-2.045-2.099z" fill="#019F78"/><path fill-rule="evenodd" clip-rule="evenodd" d="M24.561 12.896h-8.003c-.845 0-1.53.703-1.53 1.57v1.227c0 .866.685 1.57 1.53 1.57h8.003c.846 0 1.533-.704 1.533-1.57v-1.226c0-.87-.687-1.571-1.533-1.571zm-4.739 2.938h-3.296v-1.527h3.296v1.527zM6.868 6.824l10.598-3.41 1.247 3.41h2.054c.216 0 .42.044.617.105L19.164.854 2.27 6.147l.187.716a2.16 2.16 0 01.387-.038h4.024v-.001z" fill="#019F78"/></svg>